{
  "accessors": [
    {
      "bufferView": 0,
      "componentType": 5126,
      "count": 6668,
      "min": [
        -6.264322757720947,
        -6.6737141609191898,
        0.031317923218011859
      ],
      "max": [
        6.264321327209473,
        6.6737141609191898,
        3.282837152481079
      ],
      "type": "VEC3"
    },
    {
      "bufferView": 3,
      "componentType": 5123,
      "count": 31500,
      "type": "SCALAR"
    },
    {
      "bufferView": 1,
      "componentType": 5126,
      "count": 6668,
      "type": "VEC3"
    },
    {
      "bufferView": 3,
      "componentType": 5123,
      "count": 31500,
      "type": "SCALAR"
    },
    {
      "bufferView": 2,
      "componentType": 5126,
      "count": 6668,
      "type": "VEC2"
    },
    {
      "bufferView": 3,
      "componentType": 5123,
      "count": 31500,
      "type": "SCALAR"
    }
  ],
  "asset": {
    "version": "2.0"
  },
  "bufferViews": [
    {
      "buffer": 0,
      "byteLength": 80016,
      "target": 34962
    },
    {
      "buffer": 1,
      "byteLength": 80016,
      "target": 34962
    },
    {
      "buffer": 2,
      "byteLength": 53344,
      "target": 34962
    },
    {
      "buffer": 3,
      "byteLength": 63000,
      "target": 34963
    }
  ],
  "materials": [
    null
  ],
  "meshes": [
    {
      "primitives": [
        {
          "attributes": {
            "NORMAL": 2,
            "POSITION": 0,
            "TEXCOORD_0": 4
          },
          "indices": 5,
          "material": 0,
          "mode": 4
        }
      ]
    }
  ],
  "nodes": [
    {
      "mesh": 0,
      "name": "_gltfNode_0"
    },
    {
      "name": "_gltfNode_1",
      "children": [
        0
      ]
    },
    {
      "name": "_gltfNode_2",
      "children": [
        1
      ]
    },
    {
      "name": "_gltfNode_3",
      "children": [
        2
      ]
    },
    {
      "name": "_gltfNode_4",
      "children": [
        3
      ]
    },
    {
      "matrix": [
        1.0,
        0.0,
        0.0,
        0.0,
        0.0,
        2.220446049250313e-16,
        -1.0,
        0.0,
        0.0,
        1.0,
        2.220446049250313e-16,
        0.0,
        0.0,
        0.0,
        0.0,
        1.0
      ],
      "name": "_gltfNode_5",
      "children": [
        4
      ]
    }
  ],
  "scene": 0,
  "scenes": [
    {
      "nodes": [
        5
      ]
    }
  ],
  "textures": [
    {
      "sampler": 0,
      "source": 0
    }
  ],
  "samplers": [
    {
      "magFilter": 9729,
      "minFilter": 9987,
      "wrapR": 33071,
      "wrapS": 10497,
      "wrapT": 10497
    }
  ],
  "buffers": [
    {
      "byteLength": 80016,
      "uri": "data:application/octet-stream;base64,"
    },
    {
      "byteLength": 80016,
      "uri": "data:application/octet-stream;base64,"
    },
    {
      "byteLength": 53344,
      "uri": "data:application/octet-stream;base64,"
    },
    {
      "byteLength": 63000,
      "uri": "data:application/octet-stream;base64,"
    }
  ],
  "images": [
    {
      "uri": "../../dba6e177.png"
    }
  ]
}
