{
  "accessors": [
    {
      "bufferView": 0,
      "componentType": 5126,
      "count": 9251,
      "min": [
        -2.943542957305908,
        -4.813308238983154,
        -0.25045526027679446
      ],
      "max": [
        2.9302680492401125,
        4.810211658477783,
        2.0479423999786379
      ],
      "type": "VEC3"
    },
    {
      "bufferView": 3,
      "componentType": 5123,
      "count": 19821,
      "type": "SCALAR"
    },
    {
      "bufferView": 1,
      "componentType": 5126,
      "count": 9251,
      "type": "VEC3"
    },
    {
      "bufferView": 3,
      "componentType": 5123,
      "count": 19821,
      "type": "SCALAR"
    },
    {
      "bufferView": 2,
      "componentType": 5126,
      "count": 9251,
      "type": "VEC2"
    },
    {
      "bufferView": 3,
      "componentType": 5123,
      "count": 19821,
      "type": "SCALAR"
    },
    {
      "bufferView": 4,
      "componentType": 5126,
      "count": 26,
      "min": [
        -1.8076281547546387,
        -1.2817802429199219,
        0.4291461408138275
      ],
      "max": [
        -1.7228238582611085,
        -0.9549844264984131,
        0.5124173164367676
      ],
      "type": "VEC3"
    },
    {
      "bufferView": 7,
      "componentType": 5123,
      "count": 54,
      "type": "SCALAR"
    },
    {
      "bufferView": 5,
      "componentType": 5126,
      "count": 26,
      "type": "VEC3"
    },
    {
      "bufferView": 7,
      "componentType": 5123,
      "count": 54,
      "type": "SCALAR"
    },
    {
      "bufferView": 6,
      "componentType": 5126,
      "count": 26,
      "type": "VEC2"
    },
    {
      "bufferView": 7,
      "componentType": 5123,
      "count": 54,
      "type": "SCALAR"
    }
  ],
  "asset": {
    "version": "2.0"
  },
  "bufferViews": [
    {
      "buffer": 0,
      "byteLength": 111012,
      "target": 34962
    },
    {
      "buffer": 1,
      "byteLength": 111012,
      "target": 34962
    },
    {
      "buffer": 2,
      "byteLength": 74008,
      "target": 34962
    },
    {
      "buffer": 3,
      "byteLength": 39642,
      "target": 34963
    },
    {
      "buffer": 4,
      "byteLength": 312,
      "target": 34962
    },
    {
      "buffer": 5,
      "byteLength": 312,
      "target": 34962
    },
    {
      "buffer": 6,
      "byteLength": 208,
      "target": 34962
    },
    {
      "buffer": 7,
      "byteLength": 108,
      "target": 34963
    }
  ],
  "materials": [
    null,
    null
  ],
  "meshes": [
    {
      "primitives": [
        {
          "attributes": {
            "NORMAL": 2,
            "POSITION": 0,
            "TEXCOORD_0": 4
          },
          "indices": 5,
          "material": 0,
          "mode": 4
        }
      ]
    },
    {
      "primitives": [
        {
          "attributes": {
            "NORMAL": 8,
            "POSITION": 6,
            "TEXCOORD_0": 10
          },
          "indices": 11,
          "material": 1,
          "mode": 4
        }
      ]
    }
  ],
  "nodes": [
    {
      "mesh": 0,
      "name": "_gltfNode_0"
    },
    {
      "mesh": 1,
      "name": "_gltfNode_1"
    },
    {
      "name": "_gltfNode_2",
      "children": [
        0,
        1
      ]
    },
    {
      "name": "_gltfNode_3",
      "children": [
        2
      ]
    },
    {
      "name": "_gltfNode_4",
      "children": [
        3
      ]
    },
    {
      "matrix": [
        1.0,
        0.0,
        0.0,
        0.0,
        0.0,
        2.220446049250313e-16,
        -1.0,
        0.0,
        0.0,
        1.0,
        2.220446049250313e-16,
        0.0,
        0.0,
        0.0,
        0.0,
        1.0
      ],
      "name": "_gltfNode_5",
      "children": [
        4
      ]
    }
  ],
  "scene": 0,
  "scenes": [
    {
      "nodes": [
        5
      ]
    }
  ],
  "textures": [
    {
      "sampler": 0,
      "source": 0
    },
    {
      "sampler": 1,
      "source": 1
    }
  ],
  "samplers": [
    {
      "magFilter": 9729,
      "minFilter": 9987,
      "wrapR": 33071,
      "wrapS": 10497,
      "wrapT": 10497
    },
    {
      "magFilter": 9729,
      "minFilter": 9987,
      "wrapR": 33071,
      "wrapS": 10497,
      "wrapT": 10497
    }
  ],
  "buffers": [
    {
      "byteLength": 111012,
      "uri": "data:application/octet-stream;base64,"
    },
    {
      "byteLength": 111012,
      "uri": "data:application/octet-stream;base64,"
    },
    {
      "byteLength": 74008,
      "uri": "data:application/octet-stream;base64,"
    },
    {
      "byteLength": 39642,
      "uri": "data:application/octet-stream;base64,"
    },
    {
      "byteLength": 312,
      "uri": "data:application/octet-stream;base64,"
    },
    {
      "byteLength": 312,
      "uri": "data:application/octet-stream;base64,"
    },
    {
      "byteLength": 208,
      "uri": "data:application/octet-stream;base64,"
    },
    {
      "byteLength": 108,
      "uri": "data:application/octet-stream;base64,"
    }
  ],
  "images": [
    {
      "uri": "../../3d1f5757.png"
    },
    {
      "uri": "../../a6610b8a.png"
    }
  ]
}
